<svg width="299" height="296" viewBox="0 0 299 296" fill="none" xmlns="http://www.w3.org/2000/svg">
<g clip-path="url(#clip0_1_2)">
<path d="M174 251C174 256.523 169.523 261 164 261H140C134.477 261 130 256.523 130 251V245H174V251Z" fill="#D9BA9D"/>
<path d="M146 254C146 250.686 148.686 248 152 248C155.314 248 158 250.686 158 254C158 257.314 155.314 260 152 260C148.686 260 146 257.314 146 254Z" fill="#D9D9D9"/>
<rect width="20" height="25" transform="matrix(-1 0 0 -1 162 286)" fill="#D9BA9D"/>
<line x1="152" y1="280" x2="152" y2="261" stroke="black" stroke-width="4"/>
<path d="M280.897 139.522V167.7" stroke="#E0C29F" stroke-width="3" stroke-linecap="round"/>
<rect x="51.25" y="72.25" width="200.5" height="153.5" rx="9.75" fill="black"/>
<g clip-path="url(#clip1_1_2)">
<path d="M101.34 104.46L101.86 104.78C101.86 107.233 102.2 109.56 102.88 111.76C103.107 111.253 103.727 110.173 104.74 108.52C105.753 106.867 106.62 105.593 107.34 104.7C107.5 104.513 107.787 104.42 108.2 104.42C108.28 104.42 108.32 104.453 108.32 104.52C108.32 104.573 108.02 105.087 107.42 106.06C106.833 107.02 106.167 108.233 105.42 109.7C104.673 111.167 104.153 112.48 103.86 113.64C103.78 114.413 103.74 115.173 103.74 115.92C103.74 117.107 103.76 117.933 103.8 118.4L103.82 118.62C103.82 118.66 103.76 118.68 103.64 118.68C103.533 118.68 103.373 118.647 103.16 118.58C102.96 118.527 102.827 118.46 102.76 118.38C102.48 116.887 102.327 115.32 102.3 113.68C101.687 112.373 101.113 110.913 100.58 109.3C100.047 107.673 99.72 106.333 99.6 105.28L101.34 104.46ZM115.748 110.66L115.148 112.04C114.375 112.187 113.635 112.26 112.928 112.26C112.221 112.26 111.608 112.24 111.088 112.2C111.075 112.387 111.068 112.653 111.068 113C111.068 114.307 111.255 115.387 111.628 116.24C112.015 117.08 112.588 117.5 113.348 117.5C114.121 117.5 114.741 117.22 115.208 116.66C115.675 116.087 116.088 115.167 116.448 113.9C116.475 113.793 116.521 113.74 116.588 113.74C116.775 113.74 116.981 113.833 117.208 114.02C116.595 117.113 115.201 118.66 113.028 118.66C110.721 118.66 109.528 116.447 109.448 112.02L109.048 111.94C108.928 111.9 108.808 111.767 108.688 111.54C108.581 111.3 108.521 111.113 108.508 110.98L108.608 110.86C108.968 110.913 109.255 110.947 109.468 110.96C109.535 108.907 109.655 107.373 109.828 106.36L109.348 106.24C109.228 106.16 109.128 106.033 109.048 105.86C108.981 105.673 108.948 105.54 108.948 105.46C108.948 105.38 108.961 105.34 108.988 105.34L110.408 105.46L111.868 104.46L112.388 104.78L112.148 105.48C114.175 105.453 115.835 105.113 117.128 104.46L117.468 104.98L116.808 106.7C115.875 106.82 114.988 106.88 114.148 106.88C113.308 106.88 112.541 106.833 111.848 106.74C111.528 108.1 111.301 109.527 111.168 111.02H111.628C113.068 111.02 114.381 110.787 115.568 110.32L115.748 110.66Z" fill="white"/>
<path d="M96.72 186.94L96.7 186.3C96.3133 186.233 96.0067 186.167 95.78 186.1C95.6867 186.06 95.6 185.927 95.52 185.7C95.44 185.473 95.3933 185.287 95.38 185.14L95.44 185.02C95.8133 185.087 96.2267 185.133 96.68 185.16C96.6133 183.787 96.44 182.22 96.16 180.46C95.96 180.42 95.6733 180.347 95.3 180.24C95.18 180.16 95.08 180.033 95 179.86C94.9333 179.673 94.9 179.54 94.9 179.46C94.9 179.38 94.9133 179.34 94.94 179.34C95.1933 179.367 95.56 179.393 96.04 179.42L97.44 178.46L97.96 178.78C98.0133 179.113 98.0467 179.347 98.06 179.48C100.047 179.427 101.667 179.087 102.92 178.46L103.26 178.98L102.6 180.7C101.653 180.82 100.82 180.88 100.1 180.88C99.38 180.88 98.7467 180.853 98.2 180.8C98.24 181.48 98.26 182.12 98.26 182.72C98.26 183.307 98.2333 184.12 98.18 185.16C99.42 185.093 100.54 184.867 101.54 184.48L101.72 184.82L101.1 186.2C100.3 186.347 99.4467 186.42 98.54 186.42H98.08C97.9333 188.007 97.6733 189.96 97.3 192.28C97.2067 192.387 97.0533 192.473 96.84 192.54C96.64 192.62 96.4667 192.66 96.32 192.66C96.1867 192.66 96.12 192.627 96.12 192.56L96.18 192.34C96.54 191.02 96.72 189.22 96.72 186.94ZM109.882 178.84C109.815 179.547 109.782 180.293 109.782 181.08C109.782 184.32 110.382 188.167 111.582 192.62C111.542 192.647 111.488 192.667 111.422 192.68C111.075 192.68 110.815 192.58 110.642 192.38C110.188 191.42 109.695 190.007 109.162 188.14C108.255 188.287 107.408 188.36 106.622 188.36C105.848 188.36 105.308 188.347 105.002 188.32C104.375 189.627 103.675 190.98 102.902 192.38C102.662 192.58 102.415 192.68 102.162 192.68C101.908 192.68 101.782 192.66 101.782 192.62C102.288 191.62 102.955 190.133 103.782 188.16C103.622 188.133 103.368 188.08 103.022 188C102.822 187.787 102.722 187.493 102.722 187.12C102.722 187.027 102.742 186.98 102.782 186.98C102.822 186.98 102.902 187 103.022 187.04C103.302 187.12 103.675 187.187 104.142 187.24C105.422 184.107 106.308 181.567 106.802 179.62L109.002 178.46C109.375 178.46 109.668 178.587 109.882 178.84ZM105.482 187.3C106.735 187.273 107.848 187.12 108.822 186.84C108.275 184.773 107.928 183.013 107.782 181.56C107.022 183.653 106.255 185.567 105.482 187.3ZM113.741 187.3C113.514 187.087 113.401 186.82 113.401 186.5C113.401 186.393 113.421 186.34 113.461 186.34C113.741 186.393 114.154 186.42 114.701 186.42H115.061C114.981 182.993 114.454 180.707 113.481 179.56L114.421 178.22C115.461 178.887 116.887 179.593 118.701 180.34C119.287 180.58 119.847 180.847 120.381 181.14C121.461 181.74 122.001 182.527 122.001 183.5C122.001 184.087 121.807 184.653 121.421 185.2C121.047 185.747 120.441 186.2 119.601 186.56C120.747 189.093 121.834 191.033 122.861 192.38V192.4C122.861 192.547 122.641 192.62 122.201 192.62C122.094 192.62 122.014 192.613 121.961 192.6C121.041 191.693 119.761 189.833 118.121 187.02C117.627 187.127 117.027 187.213 116.321 187.28C116.267 188.133 116.081 189.833 115.761 192.38C115.561 192.58 115.347 192.68 115.121 192.68C114.907 192.68 114.801 192.66 114.801 192.62C114.987 190.847 115.081 189.093 115.081 187.36V187.32H114.981C114.421 187.32 114.007 187.313 113.741 187.3ZM116.081 180.46C116.307 181.727 116.421 182.873 116.421 183.9C116.421 184.927 116.401 185.733 116.361 186.32C117.547 186.16 118.447 185.84 119.061 185.36C119.674 184.867 119.981 184.307 119.981 183.68C119.981 183.12 119.794 182.66 119.421 182.3C119.221 182.1 119.034 181.933 118.861 181.8C118.701 181.667 118.427 181.507 118.041 181.32C117.654 181.133 117.354 181 117.141 180.92C116.941 180.827 116.587 180.673 116.081 180.46Z" fill="white"/>
<path d="M78 81.5H142.5V216.5H78C76.067 216.5 74.5 214.933 74.5 213V85C74.5 83.067 76.067 81.5 78 81.5Z" stroke="#E0C29F" stroke-width="3"/>
<rect x="160.5" y="81.5" width="68" height="135" fill="black"/>
<path d="M189.62 107.76C189.66 108.36 189.68 109.293 189.68 110.56C189.68 111.827 189.607 113.06 189.46 114.26C189.327 115.447 189.18 116.213 189.02 116.56C188.847 116.76 188.673 116.86 188.5 116.86C188.327 116.86 188.24 116.84 188.24 116.8C188.427 115.307 188.52 114.14 188.52 113.3C188.52 109.42 187.927 106.887 186.74 105.7L187.58 104.36C188.673 105.427 190.02 106.467 191.62 107.48C193.087 108.4 194.267 109.287 195.16 110.14C195.613 110.567 195.98 111.067 196.26 111.64C196.54 112.213 196.68 112.847 196.68 113.54C196.68 114.22 196.527 114.86 196.22 115.46C195.913 116.06 195.527 116.547 195.06 116.92C194.607 117.293 194.093 117.607 193.52 117.86C191.707 118.647 189.533 118.767 187 118.22C186.8 117.993 186.7 117.793 186.7 117.62C186.7 117.447 186.72 117.36 186.76 117.36C186.8 117.36 186.92 117.387 187.12 117.44C187.773 117.587 188.453 117.66 189.16 117.66C190.72 117.66 192 117.247 193 116.42C194 115.58 194.5 114.593 194.5 113.46C194.5 111.367 192.873 109.467 189.62 107.76ZM199.7 118.34C199.62 118.42 199.474 118.493 199.26 118.56C199.06 118.627 198.9 118.66 198.78 118.66C198.674 118.66 198.62 118.633 198.62 118.58C198.874 116.86 199 115.1 199 113.3C199 110.1 198.807 107.273 198.42 104.82L198.94 104.46L200.74 105.38C200.674 107.527 200.547 109.913 200.36 112.54C200.174 115.153 199.954 117.087 199.7 118.34Z" fill="white"/>
<path d="M182.12 181.76C182.16 182.36 182.18 183.293 182.18 184.56C182.18 185.827 182.107 187.06 181.96 188.26C181.827 189.447 181.68 190.213 181.52 190.56C181.347 190.76 181.173 190.86 181 190.86C180.827 190.86 180.74 190.84 180.74 190.8C180.927 189.307 181.02 188.14 181.02 187.3C181.02 183.42 180.427 180.887 179.24 179.7L180.08 178.36C181.173 179.427 182.52 180.467 184.12 181.48C185.587 182.4 186.767 183.287 187.66 184.14C188.113 184.567 188.48 185.067 188.76 185.64C189.04 186.213 189.18 186.847 189.18 187.54C189.18 188.22 189.027 188.86 188.72 189.46C188.413 190.06 188.027 190.547 187.56 190.92C187.107 191.293 186.593 191.607 186.02 191.86C184.207 192.647 182.033 192.767 179.5 192.22C179.3 191.993 179.2 191.793 179.2 191.62C179.2 191.447 179.22 191.36 179.26 191.36C179.3 191.36 179.42 191.387 179.62 191.44C180.273 191.587 180.953 191.66 181.66 191.66C183.22 191.66 184.5 191.247 185.5 190.42C186.5 189.58 187 188.593 187 187.46C187 185.367 185.373 183.467 182.12 181.76ZM197.74 184.66L197.14 186.04C196.367 186.187 195.627 186.26 194.92 186.26C194.214 186.26 193.6 186.24 193.08 186.2C193.067 186.387 193.06 186.653 193.06 187C193.06 188.307 193.247 189.387 193.62 190.24C194.007 191.08 194.58 191.5 195.34 191.5C196.114 191.5 196.734 191.22 197.2 190.66C197.667 190.087 198.08 189.167 198.44 187.9C198.467 187.793 198.514 187.74 198.58 187.74C198.767 187.74 198.974 187.833 199.2 188.02C198.587 191.113 197.194 192.66 195.02 192.66C192.714 192.66 191.52 190.447 191.44 186.02L191.04 185.94C190.92 185.9 190.8 185.767 190.68 185.54C190.574 185.3 190.514 185.113 190.5 184.98L190.6 184.86C190.96 184.913 191.247 184.947 191.46 184.96C191.527 182.907 191.647 181.373 191.82 180.36L191.34 180.24C191.22 180.16 191.12 180.033 191.04 179.86C190.974 179.673 190.94 179.54 190.94 179.46C190.94 179.38 190.954 179.34 190.98 179.34L192.4 179.46L193.86 178.46L194.38 178.78L194.14 179.48C196.167 179.453 197.827 179.113 199.12 178.46L199.46 178.98L198.8 180.7C197.867 180.82 196.98 180.88 196.14 180.88C195.3 180.88 194.534 180.833 193.84 180.74C193.52 182.1 193.294 183.527 193.16 185.02H193.62C195.06 185.02 196.374 184.787 197.56 184.32L197.74 184.66ZM205 192.56C204.627 192.56 204.333 192.433 204.12 192.18C203.347 190.607 202.62 188.6 201.94 186.16C201.26 183.707 200.833 181.413 200.66 179.28L202.4 178.46L202.92 178.78C202.867 179.38 202.84 180.053 202.84 180.8C202.84 183.92 203.487 187.387 204.78 191.2C205.073 189.4 205.633 187.253 206.46 184.76C207.287 182.267 208.12 180.293 208.96 178.84C209.24 178.587 209.567 178.46 209.94 178.46C209.993 178.46 210.02 178.493 210.02 178.56C210.02 178.627 209.94 178.86 209.78 179.26C209.62 179.66 209.407 180.227 209.14 180.96C208.873 181.693 208.587 182.533 208.28 183.48C207.573 185.733 207.007 188.44 206.58 191.6L205 192.56Z" fill="white"/>
<rect x="160.5" y="81.5" width="68" height="135" stroke="#E0C29F" stroke-width="3"/>
</g>
<path d="M230 137.104C230.788 137.104 231.568 137.259 232.296 137.561C233.024 137.862 233.685 138.304 234.243 138.861C234.8 139.418 235.242 140.08 235.543 140.808C235.845 141.536 236 142.316 236 143.104C236 143.892 235.845 144.672 235.543 145.4C235.242 146.128 234.8 146.789 234.243 147.346C233.685 147.904 233.024 148.346 232.296 148.647C231.568 148.949 230.788 149.104 230 149.104L230 143.104V137.104Z" fill="#D9BA9D"/>
<path d="M230 121.104C230.788 121.104 231.568 121.259 232.296 121.561C233.024 121.862 233.685 122.304 234.243 122.861C234.8 123.418 235.242 124.08 235.543 124.808C235.845 125.536 236 126.316 236 127.104C236 127.892 235.845 128.672 235.543 129.4C235.242 130.128 234.8 130.789 234.243 131.346C233.685 131.904 233.024 132.346 232.296 132.647C231.568 132.949 230.788 133.104 230 133.104L230 127.104V121.104Z" fill="#D9BA9D"/>
<path d="M230 153.104C230.788 153.104 231.568 153.259 232.296 153.561C233.024 153.862 233.685 154.304 234.243 154.861C234.8 155.418 235.242 156.08 235.543 156.808C235.845 157.536 236 158.316 236 159.104C236 159.892 235.845 160.672 235.543 161.4C235.242 162.128 234.8 162.789 234.243 163.346C233.685 163.904 233.024 164.346 232.296 164.647C231.568 164.949 230.788 165.104 230 165.104L230 159.104V153.104Z" fill="#D9BA9D"/>
<path d="M230 169.104C230.788 169.104 231.568 169.259 232.296 169.561C233.024 169.862 233.685 170.304 234.243 170.861C234.8 171.418 235.242 172.08 235.543 172.808C235.845 173.536 236 174.316 236 175.104C236 175.892 235.845 176.672 235.543 177.4C235.242 178.128 234.8 178.789 234.243 179.346C233.685 179.904 233.024 180.346 232.296 180.647C231.568 180.949 230.788 181.104 230 181.104L230 175.104V169.104Z" fill="#D9BA9D"/>
<path d="M73.1038 181.104C72.3159 181.104 71.5356 180.949 70.8077 180.647C70.0797 180.346 69.4183 179.904 68.8612 179.346C68.304 178.789 67.862 178.128 67.5605 177.4C67.259 176.672 67.1038 175.892 67.1038 175.104C67.1038 174.316 67.259 173.536 67.5605 172.808C67.8621 172.08 68.304 171.418 68.8612 170.861C69.4183 170.304 70.0798 169.862 70.8077 169.561C71.5357 169.259 72.3159 169.104 73.1038 169.104L73.1038 175.104L73.1038 181.104Z" fill="#D9BA9D"/>
<path d="M73.1038 149.104C72.3159 149.104 71.5356 148.949 70.8077 148.647C70.0797 148.346 69.4183 147.904 68.8612 147.346C68.304 146.789 67.862 146.128 67.5605 145.4C67.259 144.672 67.1038 143.892 67.1038 143.104C67.1038 142.316 67.259 141.536 67.5605 140.808C67.8621 140.08 68.304 139.418 68.8612 138.861C69.4183 138.304 70.0798 137.862 70.8077 137.561C71.5357 137.259 72.3159 137.104 73.1038 137.104L73.1038 143.104L73.1038 149.104Z" fill="#D9BA9D"/>
<path d="M73.1038 165.104C72.3159 165.104 71.5356 164.949 70.8077 164.647C70.0797 164.346 69.4183 163.904 68.8612 163.346C68.304 162.789 67.862 162.128 67.5605 161.4C67.259 160.672 67.1038 159.892 67.1038 159.104C67.1038 158.316 67.259 157.536 67.5605 156.808C67.8621 156.08 68.304 155.418 68.8612 154.861C69.4183 154.304 70.0798 153.862 70.8077 153.561C71.5357 153.259 72.3159 153.104 73.1038 153.104L73.1038 159.104L73.1038 165.104Z" fill="#D9BA9D"/>
<path d="M73.1038 133.104C72.3159 133.104 71.5356 132.949 70.8077 132.647C70.0797 132.346 69.4183 131.904 68.8612 131.346C68.304 130.789 67.862 130.128 67.5605 129.4C67.259 128.672 67.1038 127.892 67.1038 127.104C67.1038 126.316 67.259 125.536 67.5605 124.808C67.8621 124.08 68.304 123.418 68.8612 122.861C69.4183 122.304 70.0798 121.862 70.8077 121.561C71.5357 121.259 72.3159 121.104 73.1038 121.104L73.1038 127.104L73.1038 133.104Z" fill="#D9BA9D"/>
<rect x="51.25" y="72.25" width="200.5" height="153.5" rx="9.75" stroke="#D9BA9D" stroke-width="0.5"/>
<path d="M121 53.25H182C187.385 53.25 191.75 57.6152 191.75 63V71.75H111.25V63C111.25 57.6152 115.615 53.25 121 53.25Z" fill="black"/>
<circle cx="126" cy="62" r="6" fill="#D9BA9D"/>
<circle cx="178" cy="62" r="6" fill="#D9BA9D"/>
<path d="M121 53.25H182C187.385 53.25 191.75 57.6152 191.75 63V71.75H111.25V63C111.25 57.6152 115.615 53.25 121 53.25Z" stroke="#D9BA9D" stroke-width="0.5"/>
<path d="M111.25 226.25H191.75V235C191.75 240.385 187.385 244.75 182 244.75H121C115.615 244.75 111.25 240.385 111.25 235V226.25Z" fill="black"/>
<circle cx="178" cy="236" r="6" fill="#D9BA9D"/>
<path d="M132 236C132 239.314 129.314 242 126 242C122.686 242 120 239.314 120 236C120 232.686 122.686 230 126 230C129.314 230 132 232.686 132 236Z" fill="#D9BA9D"/>
<path d="M111.25 226.25H191.75V235C191.75 240.385 187.385 244.75 182 244.75H121C115.615 244.75 111.25 240.385 111.25 235V226.25Z" stroke="#D9BA9D" stroke-width="0.5"/>
<path d="M126 62H138C143.523 62 148 66.4772 148 72V226C148 231.523 143.523 236 138 236H126" stroke="#D9BA9D" stroke-width="5"/>
<path d="M177 236H165C159.477 236 155 231.523 155 226L155 72C155 66.4772 159.477 62 165 62H177" stroke="#D9BA9D" stroke-width="5"/>
<path d="M230 127H243.5C249.023 127 253.5 122.523 253.5 117V112.75C253.5 109.022 256.522 106 260.25 106V106C263.978 106 267 102.978 267 99.25V85.5M230 143H251C252.381 143 253.5 141.881 253.5 140.5V140.5C253.5 139.119 254.619 138 256 138H281.211M230 159H257.875C259.325 159 260.5 160.175 260.5 161.625V161.625C260.5 163.075 261.675 164.25 263.125 164.25H283M230 175H254.499C256.725 175 258.547 176.774 258.605 179V179C258.664 181.226 260.485 183 262.712 183H281.211" stroke="#D9BA9D" stroke-width="5"/>
<path d="M73 175H57.5C53.0817 175 49.5 178.582 49.5 183V189.25C49.5 192.978 46.4779 196 42.75 196V196C39.0221 196 36 199.022 36 202.75V216.5M73 159H52C50.6193 159 49.5 160.119 49.5 161.5V161.5C49.5 162.881 48.3807 164 47 164H21.7895M73 143H45.125C43.6753 143 42.5 141.825 42.5 140.375V140.375C42.5 138.925 41.3247 137.75 39.875 137.75H20M73 127H48.5014C46.2747 127 44.4533 125.226 44.3947 123V123C44.3362 120.774 42.5148 119 40.2881 119H21.7895" stroke="#D9BA9D" stroke-width="5"/>
<path d="M130 47C130 41.4772 134.477 37 140 37H164C169.523 37 174 41.4772 174 47V53H130V47Z" fill="#D9BA9D"/>
<path d="M158 44C158 47.3137 155.314 50 152 50C148.686 50 146 47.3137 146 44C146 40.6863 148.686 38 152 38C155.314 38 158 40.6863 158 44Z" fill="#D9D9D9"/>
<rect width="20" height="25" transform="translate(142 12)" fill="#D9BA9D"/>
<line x1="152" y1="18" x2="152" y2="37" stroke="black" stroke-width="4"/>
<g filter="url(#filter0_f_1_2)">
<path d="M280.181 143.739C282.662 214.793 227.144 274.402 156.177 276.881C85.2094 279.359 25.6678 223.767 23.1865 152.714C20.7053 81.6597 76.224 22.0502 147.191 19.572C218.158 17.0937 277.7 72.6853 280.181 143.739ZM39.7106 152.137C41.8728 214.053 93.7577 262.496 155.599 260.336C217.44 258.177 265.819 206.233 263.657 144.316C261.495 82.3995 209.61 33.9567 147.769 36.1163C85.9278 38.2758 37.5485 90.2198 39.7106 152.137Z" fill="black" fill-opacity="0.39"/>
</g>
<path d="M296.486 145.978C297.884 226.047 234.108 292.089 154.039 293.486C73.97 294.884 7.92821 231.108 6.5306 151.039C5.13299 70.97 68.9088 4.92822 148.978 3.5306C229.047 2.13299 295.089 65.9088 296.486 145.978ZM22.8584 150.754C24.0987 221.806 82.7026 278.399 153.754 277.159C224.806 275.918 281.399 217.314 280.159 146.263C278.918 75.2115 220.314 18.6182 149.263 19.8585C78.2114 21.0987 21.6182 79.7026 22.8584 150.754Z" fill="#E0C29F"/>
<path d="M227 159.5H220.776C218.567 159.5 216.776 161.291 216.776 163.5V163.5C216.776 165.709 214.985 167.5 212.776 167.5H207.25C203.798 167.5 201 164.702 201 161.25V161.25C201 157.798 198.202 155 194.75 155H186.5C183.462 155 181 157.462 181 160.5V160.5C181 163.538 183.462 166 186.5 166H188C191.866 166 195 169.134 195 173V176" stroke="#D8F6F8" stroke-width="5"/>
<path d="M227 142.5H217.592C216.073 142.5 214.842 143.731 214.842 145.25V145.25C214.842 146.769 213.61 148 212.092 148L180.5 148C177.739 148 175.5 145.761 175.5 143V143C175.5 140.239 177.739 138 180.5 138H198.5C201.261 138 203.5 135.761 203.5 133V133C203.5 130.239 201.261 128 198.5 128H198.25C195.351 128 193 125.649 193 122.75V119.5" stroke="#D8F6F8" stroke-width="5"/>
<path d="M76 127H79.9741C83.564 127 86.4741 129.91 86.4741 133.5V135.461C86.4741 137.968 88.5062 140 91.0129 140H91.8017C93.8728 140 95.5517 138.321 95.5517 136.25V136.25C95.5517 134.179 97.2307 132.5 99.3017 132.5H103.75C105.545 132.5 107 133.955 107 135.75V135.75C107 137.545 108.455 139 110.25 139H126.25C128.045 139 129.5 137.545 129.5 135.75V135.75C129.5 133.955 128.045 132.5 126.25 132.5H115C112.791 132.5 111 130.709 111 128.5V128.5V121.5" stroke="#D8F6F8" stroke-width="5"/>
<path d="M76 159H81.4741C84.2356 159 86.4741 156.761 86.4741 154V154V154C86.4741 149.05 90.5235 145.056 95.4733 145.125L117.287 145.428C120.178 145.468 122.5 147.823 122.5 150.714V150.714C122.5 153.633 120.133 156 117.214 156H104.25C102.455 156 101 157.455 101 159.25V159.25C101 161.045 102.455 162.5 104.25 162.5H126.5C128.157 162.5 129.5 163.843 129.5 165.5V165.5C129.5 167.157 128.157 168.5 126.5 168.5H113C111.895 168.5 111 169.395 111 170.5V170.5V177.5" stroke="#D8F6F8" stroke-width="5"/>
</g>
<defs>
<filter id="filter0_f_1_2" x="1.10649" y="-2.5078" width="301.155" height="301.468" filterUnits="userSpaceOnUse" color-interpolation-filters="sRGB">
<feFlood flood-opacity="0" result="BackgroundImageFix"/>
<feBlend mode="normal" in="SourceGraphic" in2="BackgroundImageFix" result="shape"/>
<feGaussianBlur stdDeviation="11" result="effect1_foregroundBlur_1_2"/>
</filter>
<clipPath id="clip0_1_2">
<rect width="299" height="296" fill="white"/>
</clipPath>
<clipPath id="clip1_1_2">
<path d="M73 80H225C227.761 80 230 82.2386 230 85V213C230 215.761 227.761 218 225 218H73V80Z" fill="white"/>
</clipPath>
</defs>
</svg>
